#!OML:ASF H:\ColoradoDance\Project 1\Capture day 1\Session 8\male.ASF
:FULLY-SPECIFIED
:DEGREES
116
upperback -3.375040 0.866448 -2.407610
rfoot -9.650310 -7.218540
lradius 24.592199
lthumb 16.277201 418.480988
rradius 35.354301
lwrist -20.440701
rhand -47.056900 -1.970170
rhumerus -47.864399 -1.456620 -85.863297
lowerneck -1.375070 3.927100 9.153080
lhand -9.695130 -330.855011
ltibia 16.226299
head 2.297930 2.642820 -4.951870
rwrist 1.586210
lfingers 7.125020
rtoes -4.772240
lowerback 0.601122 0.771786 -1.617720
rfingers 7.125020
lclavicle 0.000000 0.000000
upperneck 5.038530 5.543790 -11.917600
rfemur -28.789900 17.295200 2.619370
thorax -3.797990 0.422531 -1.606740
rclavicle 0.000000 0.000000
rtibia 32.048302
lfoot -12.298000 -12.659800
lhumerus -43.645802 9.462050 60.376499
rthumb -19.761999 -30.985600
root -21.785999 19.224300 21.008600 719.622009 -64.996300 -1434.869995
ltoes -7.638270
lfemur 4.878060 -17.166100 -13.324500
117
upperback -3.290050 3.455580 -1.338320
rfoot -15.664500 -28.090099
lradius 35.149200
lthumb 22.914499 426.265015
rradius 30.712099
lwrist -8.122930
rhand -36.135300 -10.367400
rhumerus -47.481201 5.730380 -87.410400
lowerneck -5.748450 2.812380 5.041900
lhand -2.791070 -322.393005
ltibia 43.216202
head 3.982720 1.801770 -2.241010
rwrist 8.180150
lfingers 7.125020
rtoes -0.874289
lowerback 2.302450 2.538180 2.647140
rfingers 7.125020
lclavicle 0.000000 -0.000000
upperneck 8.312790 3.718120 -4.561380
rfemur -18.178400 0.939365 21.040899
thorax -4.450010 1.602920 -3.071050
rclavicle 0.000000 -0.000000
rtibia 28.098400
lfoot 1.406180 21.604700
lhumerus -41.521301 1.571770 65.030296
rthumb -9.240350 -40.145000
root -24.369499 19.838200 19.262300 728.637024 -24.910601 -1444.030029
ltoes -1.985260
lfemur -19.943399 -14.995400 -1.816070
118
upperback -3.167150 0.988157 0.326857
rfoot -15.499300 -27.321600
lradius 29.616199
lthumb 17.915400 417.454987
rradius 31.915300
lwrist -11.237700
rhand -28.904699 -3.629310
rhumerus -46.753399 -0.619160 -75.467796
lowerneck -6.219470 -1.422740 3.145030
lhand -7.993140 -331.739990
ltibia 63.618599
head 2.861450 -1.020280 -1.339390
rwrist 7.974950
lfingers 7.125020
rtoes -0.193726
lowerback 2.143760 0.661257 2.090320
rfingers 7.125020
lclavicle 0.000000 -0.000000
upperneck 5.709970 -2.038460 -2.163110
rfemur -17.346201 -3.319990 25.014999
thorax -4.439100 0.427662 -0.892583
rclavicle 0.000000 -0.000000
rtibia 27.270300
lfoot 10.088300 15.722200
lhumerus -47.244801 5.267740 68.113197
rthumb -2.259690 -33.597099
root -25.735901 19.984900 17.980801 727.874023 0.393409 -1444.410034
ltoes -10.697400
lfemur -26.430901 -5.871950 -14.276600
119
upperback -3.534020 0.622166 0.144146
rfoot -14.527000 -30.440100
lradius 25.318701
lthumb 11.733100 414.397003
rradius 33.955399
lwrist -13.877200
rhand -33.328899 -3.394520
rhumerus -42.311100 0.153478 -77.853699
lowerneck -5.434020 -3.298970 1.729840
lhand -14.410700 -335.253998
ltibia 56.910999
head 2.089880 -2.235320 -0.734734
rwrist 8.894260
lfingers 7.125020
rtoes 10.553000
lowerback 1.558020 0.377916 2.811280
rfingers 7.125020
lclavicle 0.000000 -0.000000
upperneck 3.894520 -4.488780 -0.911112
rfemur -23.741301 -5.837330 26.624399
thorax -4.492780 0.214703 -1.460010
rclavicle 0.000000 -0.000000
rtibia 27.009701
lfoot 17.445700 3.298990
lhumerus -48.878899 10.121900 69.124199
rthumb -6.531760 -33.273800
root -26.054199 19.875200 16.378700 728.664001 6.186820 -1444.369995
ltoes -2.987650
lfemur -13.057000 0.253977 -15.167700
120
upperback -3.915140 -1.024360 -0.143914
rfoot -13.203100 -29.838499
lradius 31.950399
lthumb 10.896500 414.316986
rradius 36.267101
lwrist -10.825300
rhand -33.822601 -1.052780
rhumerus -42.681900 -0.538869 -81.335403
lowerneck -5.501710 -3.426820 1.879220
lhand -15.278100 -335.380005
ltibia 30.877899
head 2.281370 -2.322760 -0.968614
rwrist 7.753740
lfingers 7.125020
rtoes 11.512500
lowerback 0.851022 -0.766811 0.099289
rfingers 7.125020
lclavicle 0.000000 0.000000
upperneck 4.494540 -4.639810 -1.513130
rfemur -32.242401 -4.539110 21.673800
thorax -4.514570 -0.514982 -0.155296
rclavicle 0.000000 0.000000
rtibia 29.289101
lfoot 6.277290 2.136710
lhumerus -44.857101 4.314750 75.530602
rthumb -7.008310 -30.916800
root -25.830299 19.675100 14.244900 729.375000 9.772350 -1441.770020
ltoes 4.712890
lfemur 5.923120 -7.941740 -13.190300
121
upperback -3.623570 -2.173260 -1.046800
rfoot -29.670300 -32.397202
lradius 39.992599
lthumb 12.365300 415.957001
rradius 36.209301
lwrist -8.649780
rhand -33.346298 -1.386810
rhumerus -49.195599 -5.294580 -78.474899
lowerneck -6.282180 -2.630560 2.075430
lhand -13.755100 -333.657013
ltibia 13.462900
head 2.621760 -1.807270 -1.528110
rwrist 6.308260
lfingers 7.125020
rtoes -5.929580
lowerback 0.732825 -1.563050 -1.672540
rfingers 7.125020
lclavicle 0.000000 0.000000
upperneck 5.093720 -3.500500 -3.171780
rfemur -39.713501 5.605720 8.239390
thorax -4.120360 -1.044720 -0.049498
rclavicle 0.000000 0.000000
rtibia 28.990200
lfoot -13.711400 0.832037
lhumerus -38.619701 -3.049780 77.701500
rthumb -6.548560 -31.265600
root -25.101299 19.141300 11.179200 729.421997 9.611410 -1437.599976
ltoes -18.166700
lfemur 10.264800 -13.663100 -20.884100
122
upperback -2.587910 -2.852700 -1.972160
rfoot -41.136002 -32.533600
lradius 30.884300
lthumb 11.463300 419.766998
rradius 25.770500
lwrist -14.032700
rhand -36.509102 -4.383160
rhumerus -58.343800 -13.096600 -71.438004
lowerneck -5.303250 -1.718840 2.611280
lhand -14.690400 -329.899994
ltibia 23.117399
head 2.626260 -1.192630 -1.332040
rwrist 8.019330
lfingers 7.125020
rtoes -9.046790
lowerback 1.001110 -1.985020 -5.768460
rfingers 7.125020
lclavicle -0.000000 0.000000
upperneck 5.546030 -2.347530 -2.449690
rfemur -38.045799 14.183700 1.744460
thorax -3.055440 -1.304690 1.291340
rclavicle -0.000000 0.000000
rtibia 27.174400
lfoot -22.799700 0.475730
lhumerus -31.879700 -1.369820 74.059097
rthumb -9.601020 -34.144402
root -24.543100 19.055201 8.117620 726.580017 7.929000 -1434.670044
ltoes -0.164574
lfemur -0.150695 -8.404420 -26.429300
123
upperback -2.876650 -1.338380 -0.987835
rfoot -20.407200 -8.755740
lradius 27.622101
lthumb 13.675500 418.397003
rradius 20.582899
lwrist -15.292400
rhand -33.533100 -4.781960
rhumerus -60.992901 -14.246800 -68.241600
lowerneck -5.528550 -0.538878 4.161010
lhand -12.395900 -331.134003
ltibia 29.636000
head 2.738710 -0.441104 -1.888640
rwrist 16.782900
lfingers 7.125020
rtoes -17.674900
lowerback 0.768759 -0.926447 -2.839320
rfingers 7.125020
lclavicle 0.000000 -0.000000
upperneck 5.607100 -0.834606 -3.458600
rfemur -33.020802 -4.756590 17.746901
thorax -3.348450 -0.605018 0.622535
rclavicle 0.000000 -0.000000
rtibia 47.548698
lfoot -19.640900 8.226470
lhumerus -39.085701 2.092350 73.105598
rthumb -6.728890 -34.654999
root -24.320801 19.409901 5.739940 724.432007 1.570020 -1438.540039
ltoes 3.685430
lfemur -9.259030 -8.692200 -24.236601
